<svg width="360" height="30" viewBox="0 0 360 30" fill="none" xmlns="http://www.w3.org/2000/svg">
<rect width="360" height="30" fill="#07B0FB"/>
<path d="M121.141 16.2871H122.266C122.207 16.8262 122.053 17.3086 121.803 17.7344C121.553 18.1602 121.199 18.498 120.742 18.748C120.285 18.9941 119.715 19.1172 119.031 19.1172C118.531 19.1172 118.076 19.0234 117.666 18.8359C117.26 18.6484 116.91 18.3828 116.617 18.0391C116.324 17.6914 116.098 17.2754 115.938 16.791C115.781 16.3027 115.703 15.7598 115.703 15.1621V14.3125C115.703 13.7148 115.781 13.1738 115.938 12.6895C116.098 12.2012 116.326 11.7832 116.623 11.4355C116.924 11.0879 117.285 10.8203 117.707 10.6328C118.129 10.4453 118.604 10.3516 119.131 10.3516C119.775 10.3516 120.32 10.4727 120.766 10.7148C121.211 10.957 121.557 11.293 121.803 11.7227C122.053 12.1484 122.207 12.6426 122.266 13.2051H121.141C121.086 12.8066 120.984 12.4648 120.836 12.1797C120.688 11.8906 120.477 11.668 120.203 11.5117C119.93 11.3555 119.572 11.2773 119.131 11.2773C118.752 11.2773 118.418 11.3496 118.129 11.4941C117.844 11.6387 117.604 11.8438 117.408 12.1094C117.217 12.375 117.072 12.6934 116.975 13.0645C116.877 13.4355 116.828 13.8477 116.828 14.3008V15.1621C116.828 15.5801 116.871 15.9727 116.957 16.3398C117.047 16.707 117.182 17.0293 117.361 17.3066C117.541 17.584 117.77 17.8027 118.047 17.9629C118.324 18.1191 118.652 18.1973 119.031 18.1973C119.512 18.1973 119.895 18.1211 120.18 17.9688C120.465 17.8164 120.68 17.5977 120.824 17.3125C120.973 17.0273 121.078 16.6855 121.141 16.2871ZM123.355 15.9004V15.7656C123.355 15.3086 123.422 14.8848 123.555 14.4941C123.688 14.0996 123.879 13.7578 124.129 13.4688C124.379 13.1758 124.682 12.9492 125.037 12.7891C125.393 12.625 125.791 12.543 126.232 12.543C126.678 12.543 127.078 12.625 127.434 12.7891C127.793 12.9492 128.098 13.1758 128.348 13.4688C128.602 13.7578 128.795 14.0996 128.928 14.4941C129.061 14.8848 129.127 15.3086 129.127 15.7656V15.9004C129.127 16.3574 129.061 16.7812 128.928 17.1719C128.795 17.5625 128.602 17.9043 128.348 18.1973C128.098 18.4863 127.795 18.7129 127.439 18.877C127.088 19.0371 126.689 19.1172 126.244 19.1172C125.799 19.1172 125.398 19.0371 125.043 18.877C124.688 18.7129 124.383 18.4863 124.129 18.1973C123.879 17.9043 123.688 17.5625 123.555 17.1719C123.422 16.7812 123.355 16.3574 123.355 15.9004ZM124.439 15.7656V15.9004C124.439 16.2168 124.477 16.5156 124.551 16.7969C124.625 17.0742 124.736 17.3203 124.885 17.5352C125.037 17.75 125.227 17.9199 125.453 18.0449C125.68 18.166 125.943 18.2266 126.244 18.2266C126.541 18.2266 126.801 18.166 127.023 18.0449C127.25 17.9199 127.438 17.75 127.586 17.5352C127.734 17.3203 127.846 17.0742 127.92 16.7969C127.998 16.5156 128.037 16.2168 128.037 15.9004V15.7656C128.037 15.4531 127.998 15.1582 127.92 14.8809C127.846 14.5996 127.732 14.3516 127.58 14.1367C127.432 13.918 127.244 13.7461 127.018 13.6211C126.795 13.4961 126.533 13.4336 126.232 13.4336C125.936 13.4336 125.674 13.4961 125.447 13.6211C125.225 13.7461 125.037 13.918 124.885 14.1367C124.736 14.3516 124.625 14.5996 124.551 14.8809C124.477 15.1582 124.439 15.4531 124.439 15.7656ZM131.57 13.8789V21.4375H130.48V12.6602H131.477L131.57 13.8789ZM135.842 15.7773V15.9004C135.842 16.3613 135.787 16.7891 135.678 17.1836C135.568 17.5742 135.408 17.9141 135.197 18.2031C134.99 18.4922 134.734 18.7168 134.43 18.877C134.125 19.0371 133.775 19.1172 133.381 19.1172C132.979 19.1172 132.623 19.0508 132.314 18.918C132.006 18.7852 131.744 18.5918 131.529 18.3379C131.314 18.084 131.143 17.7793 131.014 17.4238C130.889 17.0684 130.803 16.668 130.756 16.2227V15.5664C130.803 15.0977 130.891 14.6777 131.02 14.3066C131.148 13.9355 131.318 13.6191 131.529 13.3574C131.744 13.0918 132.004 12.8906 132.309 12.7539C132.613 12.6133 132.965 12.543 133.363 12.543C133.762 12.543 134.115 12.6211 134.424 12.7773C134.732 12.9297 134.992 13.1484 135.203 13.4336C135.414 13.7188 135.572 14.0605 135.678 14.459C135.787 14.8535 135.842 15.293 135.842 15.7773ZM134.752 15.9004V15.7773C134.752 15.4609 134.719 15.1641 134.652 14.8867C134.586 14.6055 134.482 14.3594 134.342 14.1484C134.205 13.9336 134.029 13.7656 133.814 13.6445C133.6 13.5195 133.344 13.457 133.047 13.457C132.773 13.457 132.535 13.5039 132.332 13.5977C132.133 13.6914 131.963 13.8184 131.822 13.9785C131.682 14.1348 131.566 14.3145 131.477 14.5176C131.391 14.7168 131.326 14.9238 131.283 15.1387V16.6562C131.361 16.9297 131.471 17.1875 131.611 17.4297C131.752 17.668 131.939 17.8613 132.174 18.0098C132.408 18.1543 132.703 18.2266 133.059 18.2266C133.352 18.2266 133.604 18.166 133.814 18.0449C134.029 17.9199 134.205 17.75 134.342 17.5352C134.482 17.3203 134.586 17.0742 134.652 16.7969C134.719 16.5156 134.752 16.2168 134.752 15.9004ZM138.936 18.3438L140.699 12.6602H141.859L139.316 19.9785C139.258 20.1348 139.18 20.3027 139.082 20.4824C138.988 20.666 138.867 20.8398 138.719 21.0039C138.57 21.168 138.391 21.3008 138.18 21.4023C137.973 21.5078 137.725 21.5605 137.436 21.5605C137.35 21.5605 137.24 21.5488 137.107 21.5254C136.975 21.502 136.881 21.4824 136.826 21.4668L136.82 20.5879C136.852 20.5918 136.9 20.5957 136.967 20.5996C137.037 20.6074 137.086 20.6113 137.113 20.6113C137.359 20.6113 137.568 20.5781 137.74 20.5117C137.912 20.4492 138.057 20.3418 138.174 20.1895C138.295 20.041 138.398 19.8359 138.484 19.5742L138.936 18.3438ZM137.641 12.6602L139.287 17.582L139.568 18.7246L138.789 19.123L136.457 12.6602H137.641ZM143.922 13.6562V19H142.838V12.6602H143.893L143.922 13.6562ZM145.902 12.625L145.896 13.6328C145.807 13.6133 145.721 13.6016 145.639 13.5977C145.561 13.5898 145.471 13.5859 145.369 13.5859C145.119 13.5859 144.898 13.625 144.707 13.7031C144.516 13.7812 144.354 13.8906 144.221 14.0312C144.088 14.1719 143.982 14.3398 143.904 14.5352C143.83 14.7266 143.781 14.9375 143.758 15.168L143.453 15.3438C143.453 14.9609 143.49 14.6016 143.564 14.2656C143.643 13.9297 143.762 13.6328 143.922 13.375C144.082 13.1133 144.285 12.9102 144.531 12.7656C144.781 12.6172 145.078 12.543 145.422 12.543C145.5 12.543 145.59 12.5527 145.691 12.5723C145.793 12.5879 145.863 12.6055 145.902 12.625ZM148.082 12.6602V19H146.992V12.6602H148.082ZM146.91 10.9785C146.91 10.8027 146.963 10.6543 147.068 10.5332C147.178 10.4121 147.338 10.3516 147.549 10.3516C147.756 10.3516 147.914 10.4121 148.023 10.5332C148.137 10.6543 148.193 10.8027 148.193 10.9785C148.193 11.1465 148.137 11.291 148.023 11.4121C147.914 11.5293 147.756 11.5879 147.549 11.5879C147.338 11.5879 147.178 11.5293 147.068 11.4121C146.963 11.291 146.91 11.1465 146.91 10.9785ZM153.93 12.6602H154.914V18.8652C154.914 19.4238 154.801 19.9004 154.574 20.2949C154.348 20.6895 154.031 20.9883 153.625 21.1914C153.223 21.3984 152.758 21.502 152.23 21.502C152.012 21.502 151.754 21.4668 151.457 21.3965C151.164 21.3301 150.875 21.2148 150.59 21.0508C150.309 20.8906 150.072 20.6738 149.881 20.4004L150.449 19.7559C150.715 20.0762 150.992 20.2988 151.281 20.4238C151.574 20.5488 151.863 20.6113 152.148 20.6113C152.492 20.6113 152.789 20.5469 153.039 20.418C153.289 20.2891 153.482 20.0977 153.619 19.8438C153.76 19.5938 153.83 19.2852 153.83 18.918V14.0547L153.93 12.6602ZM149.564 15.9004V15.7773C149.564 15.293 149.621 14.8535 149.734 14.459C149.852 14.0605 150.018 13.7188 150.232 13.4336C150.451 13.1484 150.715 12.9297 151.023 12.7773C151.332 12.6211 151.68 12.543 152.066 12.543C152.465 12.543 152.812 12.6133 153.109 12.7539C153.41 12.8906 153.664 13.0918 153.871 13.3574C154.082 13.6191 154.248 13.9355 154.369 14.3066C154.49 14.6777 154.574 15.0977 154.621 15.5664V16.1055C154.578 16.5703 154.494 16.9883 154.369 17.3594C154.248 17.7305 154.082 18.0469 153.871 18.3086C153.664 18.5703 153.41 18.7715 153.109 18.9121C152.809 19.0488 152.457 19.1172 152.055 19.1172C151.676 19.1172 151.332 19.0371 151.023 18.877C150.719 18.7168 150.457 18.4922 150.238 18.2031C150.02 17.9141 149.852 17.5742 149.734 17.1836C149.621 16.7891 149.564 16.3613 149.564 15.9004ZM150.648 15.7773V15.9004C150.648 16.2168 150.68 16.5137 150.742 16.791C150.809 17.0684 150.908 17.3125 151.041 17.5234C151.178 17.7344 151.352 17.9004 151.562 18.0215C151.773 18.1387 152.025 18.1973 152.318 18.1973C152.678 18.1973 152.975 18.1211 153.209 17.9688C153.443 17.8164 153.629 17.6152 153.766 17.3652C153.906 17.1152 154.016 16.8438 154.094 16.5508V15.1387C154.051 14.9238 153.984 14.7168 153.895 14.5176C153.809 14.3145 153.695 14.1348 153.555 13.9785C153.418 13.8184 153.248 13.6914 153.045 13.5977C152.842 13.5039 152.604 13.457 152.33 13.457C152.033 13.457 151.777 13.5195 151.562 13.6445C151.352 13.7656 151.178 13.9336 151.041 14.1484C150.908 14.3594 150.809 14.6055 150.742 14.8867C150.68 15.1641 150.648 15.4609 150.648 15.7773ZM157.645 10V19H156.561V10H157.645ZM157.387 15.5898L156.936 15.5723C156.939 15.1387 157.004 14.7383 157.129 14.3711C157.254 14 157.43 13.6777 157.656 13.4043C157.883 13.1309 158.152 12.9199 158.465 12.7715C158.781 12.6191 159.131 12.543 159.514 12.543C159.826 12.543 160.107 12.5859 160.357 12.6719C160.607 12.7539 160.82 12.8867 160.996 13.0703C161.176 13.2539 161.312 13.4922 161.406 13.7852C161.5 14.0742 161.547 14.4277 161.547 14.8457V19H160.457V14.834C160.457 14.502 160.408 14.2363 160.311 14.0371C160.213 13.834 160.07 13.6875 159.883 13.5977C159.695 13.5039 159.465 13.457 159.191 13.457C158.922 13.457 158.676 13.5137 158.453 13.627C158.234 13.7402 158.045 13.8965 157.885 14.0957C157.729 14.2949 157.605 14.5234 157.516 14.7812C157.43 15.0352 157.387 15.3047 157.387 15.5898ZM165.824 12.6602V13.4922H162.396V12.6602H165.824ZM163.557 11.1191H164.641V17.4297C164.641 17.6445 164.674 17.8066 164.74 17.916C164.807 18.0254 164.893 18.0977 164.998 18.1328C165.104 18.168 165.217 18.1855 165.338 18.1855C165.428 18.1855 165.521 18.1777 165.619 18.1621C165.721 18.1426 165.797 18.127 165.848 18.1152L165.854 19C165.768 19.0273 165.654 19.0527 165.514 19.0762C165.377 19.1035 165.211 19.1172 165.016 19.1172C164.75 19.1172 164.506 19.0645 164.283 18.959C164.061 18.8535 163.883 18.6777 163.75 18.4316C163.621 18.1816 163.557 17.8457 163.557 17.4238V11.1191ZM175.545 18.1094V19H169.961V18.2207L172.756 15.1094C173.1 14.7266 173.365 14.4023 173.553 14.1367C173.744 13.8672 173.877 13.627 173.951 13.416C174.029 13.2012 174.068 12.9824 174.068 12.7598C174.068 12.4785 174.01 12.2246 173.893 11.998C173.779 11.7676 173.611 11.584 173.389 11.4473C173.166 11.3105 172.896 11.2422 172.58 11.2422C172.201 11.2422 171.885 11.3164 171.631 11.4648C171.381 11.6094 171.193 11.8125 171.068 12.0742C170.943 12.3359 170.881 12.6367 170.881 12.9766H169.797C169.797 12.4961 169.902 12.0566 170.113 11.6582C170.324 11.2598 170.637 10.9434 171.051 10.709C171.465 10.4707 171.975 10.3516 172.58 10.3516C173.119 10.3516 173.58 10.4473 173.963 10.6387C174.346 10.8262 174.639 11.0918 174.842 11.4355C175.049 11.7754 175.152 12.1738 175.152 12.6309C175.152 12.8809 175.109 13.1348 175.023 13.3926C174.941 13.6465 174.826 13.9004 174.678 14.1543C174.533 14.4082 174.363 14.6582 174.168 14.9043C173.977 15.1504 173.771 15.3926 173.553 15.6309L171.268 18.1094H175.545ZM182.061 14.0547V15.3555C182.061 16.0547 181.998 16.6445 181.873 17.125C181.748 17.6055 181.568 17.9922 181.334 18.2852C181.1 18.5781 180.816 18.791 180.484 18.9238C180.156 19.0527 179.785 19.1172 179.371 19.1172C179.043 19.1172 178.74 19.0762 178.463 18.9941C178.186 18.9121 177.936 18.7812 177.713 18.6016C177.494 18.418 177.307 18.1797 177.15 17.8867C176.994 17.5938 176.875 17.2383 176.793 16.8203C176.711 16.4023 176.67 15.9141 176.67 15.3555V14.0547C176.67 13.3555 176.732 12.7695 176.857 12.2969C176.986 11.8242 177.168 11.4453 177.402 11.1602C177.637 10.8711 177.918 10.6641 178.246 10.5391C178.578 10.4141 178.949 10.3516 179.359 10.3516C179.691 10.3516 179.996 10.3926 180.273 10.4746C180.555 10.5527 180.805 10.6797 181.023 10.8555C181.242 11.0273 181.428 11.2578 181.58 11.5469C181.736 11.832 181.855 12.1816 181.938 12.5957C182.02 13.0098 182.061 13.4961 182.061 14.0547ZM180.971 15.5312V13.873C180.971 13.4902 180.947 13.1543 180.9 12.8652C180.857 12.5723 180.793 12.3223 180.707 12.1152C180.621 11.9082 180.512 11.7402 180.379 11.6113C180.25 11.4824 180.1 11.3887 179.928 11.3301C179.76 11.2676 179.57 11.2363 179.359 11.2363C179.102 11.2363 178.873 11.2852 178.674 11.3828C178.475 11.4766 178.307 11.627 178.17 11.834C178.037 12.041 177.936 12.3125 177.865 12.6484C177.795 12.9844 177.76 13.3926 177.76 13.873V15.5312C177.76 15.9141 177.781 16.252 177.824 16.5449C177.871 16.8379 177.939 17.0918 178.029 17.3066C178.119 17.5176 178.229 17.6914 178.357 17.8281C178.486 17.9648 178.635 18.0664 178.803 18.1328C178.975 18.1953 179.164 18.2266 179.371 18.2266C179.637 18.2266 179.869 18.1758 180.068 18.0742C180.268 17.9727 180.434 17.8145 180.566 17.5996C180.703 17.3809 180.805 17.1016 180.871 16.7617C180.938 16.418 180.971 16.0078 180.971 15.5312ZM189.045 18.1094V19H183.461V18.2207L186.256 15.1094C186.6 14.7266 186.865 14.4023 187.053 14.1367C187.244 13.8672 187.377 13.627 187.451 13.416C187.529 13.2012 187.568 12.9824 187.568 12.7598C187.568 12.4785 187.51 12.2246 187.393 11.998C187.279 11.7676 187.111 11.584 186.889 11.4473C186.666 11.3105 186.396 11.2422 186.08 11.2422C185.701 11.2422 185.385 11.3164 185.131 11.4648C184.881 11.6094 184.693 11.8125 184.568 12.0742C184.443 12.3359 184.381 12.6367 184.381 12.9766H183.297C183.297 12.4961 183.402 12.0566 183.613 11.6582C183.824 11.2598 184.137 10.9434 184.551 10.709C184.965 10.4707 185.475 10.3516 186.08 10.3516C186.619 10.3516 187.08 10.4473 187.463 10.6387C187.846 10.8262 188.139 11.0918 188.342 11.4355C188.549 11.7754 188.652 12.1738 188.652 12.6309C188.652 12.8809 188.609 13.1348 188.523 13.3926C188.441 13.6465 188.326 13.9004 188.178 14.1543C188.033 14.4082 187.863 14.6582 187.668 14.9043C187.477 15.1504 187.271 15.3926 187.053 15.6309L184.768 18.1094H189.045ZM195.795 18.1094V19H190.211V18.2207L193.006 15.1094C193.35 14.7266 193.615 14.4023 193.803 14.1367C193.994 13.8672 194.127 13.627 194.201 13.416C194.279 13.2012 194.318 12.9824 194.318 12.7598C194.318 12.4785 194.26 12.2246 194.143 11.998C194.029 11.7676 193.861 11.584 193.639 11.4473C193.416 11.3105 193.146 11.2422 192.83 11.2422C192.451 11.2422 192.135 11.3164 191.881 11.4648C191.631 11.6094 191.443 11.8125 191.318 12.0742C191.193 12.3359 191.131 12.6367 191.131 12.9766H190.047C190.047 12.4961 190.152 12.0566 190.363 11.6582C190.574 11.2598 190.887 10.9434 191.301 10.709C191.715 10.4707 192.225 10.3516 192.83 10.3516C193.369 10.3516 193.83 10.4473 194.213 10.6387C194.596 10.8262 194.889 11.0918 195.092 11.4355C195.299 11.7754 195.402 12.1738 195.402 12.6309C195.402 12.8809 195.359 13.1348 195.273 13.3926C195.191 13.6465 195.076 13.9004 194.928 14.1543C194.783 14.4082 194.613 14.6582 194.418 14.9043C194.227 15.1504 194.021 15.3926 193.803 15.6309L191.518 18.1094H195.795ZM202.305 14.9277V15.8184H199.445V14.9277H202.305ZM209.664 11.2246L206.84 19H205.686L208.938 10.4688H209.682L209.664 11.2246ZM212.031 19L209.201 11.2246L209.184 10.4688H209.928L213.191 19H212.031ZM211.885 15.8418V16.7676H207.092V15.8418H211.885ZM216.707 18.2266C216.965 18.2266 217.203 18.1738 217.422 18.0684C217.641 17.9629 217.82 17.8184 217.961 17.6348C218.102 17.4473 218.182 17.2344 218.201 16.9961H219.232C219.213 17.3711 219.086 17.7207 218.852 18.0449C218.621 18.3652 218.318 18.625 217.943 18.8242C217.568 19.0195 217.156 19.1172 216.707 19.1172C216.23 19.1172 215.814 19.0332 215.459 18.8652C215.107 18.6973 214.814 18.4668 214.58 18.1738C214.35 17.8809 214.176 17.5449 214.059 17.166C213.945 16.7832 213.889 16.3789 213.889 15.9531V15.707C213.889 15.2812 213.945 14.8789 214.059 14.5C214.176 14.1172 214.35 13.7793 214.58 13.4863C214.814 13.1934 215.107 12.9629 215.459 12.7949C215.814 12.627 216.23 12.543 216.707 12.543C217.203 12.543 217.637 12.6445 218.008 12.8477C218.379 13.0469 218.67 13.3203 218.881 13.668C219.096 14.0117 219.213 14.4023 219.232 14.8398H218.201C218.182 14.5781 218.107 14.3418 217.979 14.1309C217.854 13.9199 217.682 13.752 217.463 13.627C217.248 13.498 216.996 13.4336 216.707 13.4336C216.375 13.4336 216.096 13.5 215.869 13.6328C215.646 13.7617 215.469 13.9375 215.336 14.1602C215.207 14.3789 215.113 14.623 215.055 14.8926C215 15.1582 214.973 15.4297 214.973 15.707V15.9531C214.973 16.2305 215 16.5039 215.055 16.7734C215.109 17.043 215.201 17.2871 215.33 17.5059C215.463 17.7246 215.641 17.9004 215.863 18.0332C216.09 18.1621 216.371 18.2266 216.707 18.2266ZM223.105 12.6602V13.4922H219.678V12.6602H223.105ZM220.838 11.1191H221.922V17.4297C221.922 17.6445 221.955 17.8066 222.021 17.916C222.088 18.0254 222.174 18.0977 222.279 18.1328C222.385 18.168 222.498 18.1855 222.619 18.1855C222.709 18.1855 222.803 18.1777 222.9 18.1621C223.002 18.1426 223.078 18.127 223.129 18.1152L223.135 19C223.049 19.0273 222.936 19.0527 222.795 19.0762C222.658 19.1035 222.492 19.1172 222.297 19.1172C222.031 19.1172 221.787 19.0645 221.564 18.959C221.342 18.8535 221.164 18.6777 221.031 18.4316C220.902 18.1816 220.838 17.8457 220.838 17.4238V11.1191ZM225.555 12.6602V19H224.465V12.6602H225.555ZM224.383 10.9785C224.383 10.8027 224.436 10.6543 224.541 10.5332C224.65 10.4121 224.811 10.3516 225.021 10.3516C225.229 10.3516 225.387 10.4121 225.496 10.5332C225.609 10.6543 225.666 10.8027 225.666 10.9785C225.666 11.1465 225.609 11.291 225.496 11.4121C225.387 11.5293 225.229 11.5879 225.021 11.5879C224.811 11.5879 224.65 11.5293 224.541 11.4121C224.436 11.291 224.383 11.1465 224.383 10.9785ZM227.008 15.9004V15.7656C227.008 15.3086 227.074 14.8848 227.207 14.4941C227.34 14.0996 227.531 13.7578 227.781 13.4688C228.031 13.1758 228.334 12.9492 228.689 12.7891C229.045 12.625 229.443 12.543 229.885 12.543C230.33 12.543 230.73 12.625 231.086 12.7891C231.445 12.9492 231.75 13.1758 232 13.4688C232.254 13.7578 232.447 14.0996 232.58 14.4941C232.713 14.8848 232.779 15.3086 232.779 15.7656V15.9004C232.779 16.3574 232.713 16.7812 232.58 17.1719C232.447 17.5625 232.254 17.9043 232 18.1973C231.75 18.4863 231.447 18.7129 231.092 18.877C230.74 19.0371 230.342 19.1172 229.896 19.1172C229.451 19.1172 229.051 19.0371 228.695 18.877C228.34 18.7129 228.035 18.4863 227.781 18.1973C227.531 17.9043 227.34 17.5625 227.207 17.1719C227.074 16.7812 227.008 16.3574 227.008 15.9004ZM228.092 15.7656V15.9004C228.092 16.2168 228.129 16.5156 228.203 16.7969C228.277 17.0742 228.389 17.3203 228.537 17.5352C228.689 17.75 228.879 17.9199 229.105 18.0449C229.332 18.166 229.596 18.2266 229.896 18.2266C230.193 18.2266 230.453 18.166 230.676 18.0449C230.902 17.9199 231.09 17.75 231.238 17.5352C231.387 17.3203 231.498 17.0742 231.572 16.7969C231.65 16.5156 231.689 16.2168 231.689 15.9004V15.7656C231.689 15.4531 231.65 15.1582 231.572 14.8809C231.498 14.5996 231.385 14.3516 231.232 14.1367C231.084 13.918 230.896 13.7461 230.67 13.6211C230.447 13.4961 230.186 13.4336 229.885 13.4336C229.588 13.4336 229.326 13.4961 229.1 13.6211C228.877 13.7461 228.689 13.918 228.537 14.1367C228.389 14.3516 228.277 14.5996 228.203 14.8809C228.129 15.1582 228.092 15.4531 228.092 15.7656ZM235.223 14.0137V19H234.139V12.6602H235.164L235.223 14.0137ZM234.965 15.5898L234.514 15.5723C234.518 15.1387 234.582 14.7383 234.707 14.3711C234.832 14 235.008 13.6777 235.234 13.4043C235.461 13.1309 235.73 12.9199 236.043 12.7715C236.359 12.6191 236.709 12.543 237.092 12.543C237.404 12.543 237.686 12.5859 237.936 12.6719C238.186 12.7539 238.398 12.8867 238.574 13.0703C238.754 13.2539 238.891 13.4922 238.984 13.7852C239.078 14.0742 239.125 14.4277 239.125 14.8457V19H238.035V14.834C238.035 14.502 237.986 14.2363 237.889 14.0371C237.791 13.834 237.648 13.6875 237.461 13.5977C237.273 13.5039 237.043 13.457 236.77 13.457C236.5 13.457 236.254 13.5137 236.031 13.627C235.812 13.7402 235.623 13.8965 235.463 14.0957C235.307 14.2949 235.184 14.5234 235.094 14.7812C235.008 15.0352 234.965 15.3047 234.965 15.5898ZM249.086 18.0801V19H244.82V18.0801H249.086ZM245.043 10.4688V19H243.912V10.4688H245.043ZM253.955 17.916V14.6523C253.955 14.4023 253.904 14.1855 253.803 14.002C253.705 13.8145 253.557 13.6699 253.357 13.5684C253.158 13.4668 252.912 13.416 252.619 13.416C252.346 13.416 252.105 13.4629 251.898 13.5566C251.695 13.6504 251.535 13.7734 251.418 13.9258C251.305 14.0781 251.248 14.2422 251.248 14.418H250.164C250.164 14.1914 250.223 13.9668 250.34 13.7441C250.457 13.5215 250.625 13.3203 250.844 13.1406C251.066 12.957 251.332 12.8125 251.641 12.707C251.953 12.5977 252.301 12.543 252.684 12.543C253.145 12.543 253.551 12.6211 253.902 12.7773C254.258 12.9336 254.535 13.1699 254.734 13.4863C254.938 13.7988 255.039 14.1914 255.039 14.6641V17.6172C255.039 17.8281 255.057 18.0527 255.092 18.291C255.131 18.5293 255.188 18.7344 255.262 18.9062V19H254.131C254.076 18.875 254.033 18.709 254.002 18.502C253.971 18.291 253.955 18.0957 253.955 17.916ZM254.143 15.1562L254.154 15.918H253.059C252.75 15.918 252.475 15.9434 252.232 15.9941C251.99 16.041 251.787 16.1133 251.623 16.2109C251.459 16.3086 251.334 16.4316 251.248 16.5801C251.162 16.7246 251.119 16.8945 251.119 17.0898C251.119 17.2891 251.164 17.4707 251.254 17.6348C251.344 17.7988 251.479 17.9297 251.658 18.0273C251.842 18.1211 252.066 18.168 252.332 18.168C252.664 18.168 252.957 18.0977 253.211 17.957C253.465 17.8164 253.666 17.6445 253.814 17.4414C253.967 17.2383 254.049 17.041 254.061 16.8496L254.523 17.3711C254.496 17.5352 254.422 17.7168 254.301 17.916C254.18 18.1152 254.018 18.3066 253.814 18.4902C253.615 18.6699 253.377 18.8203 253.1 18.9414C252.826 19.0586 252.518 19.1172 252.174 19.1172C251.744 19.1172 251.367 19.0332 251.043 18.8652C250.723 18.6973 250.473 18.4727 250.293 18.1914C250.117 17.9062 250.029 17.5879 250.029 17.2363C250.029 16.8965 250.096 16.5977 250.229 16.3398C250.361 16.0781 250.553 15.8613 250.803 15.6895C251.053 15.5137 251.354 15.3809 251.705 15.291C252.057 15.2012 252.449 15.1562 252.883 15.1562H254.143ZM256.738 10H257.828V17.7695L257.734 19H256.738V10ZM262.111 15.7773V15.9004C262.111 16.3613 262.057 16.7891 261.947 17.1836C261.838 17.5742 261.678 17.9141 261.467 18.2031C261.256 18.4922 260.998 18.7168 260.693 18.877C260.389 19.0371 260.039 19.1172 259.645 19.1172C259.242 19.1172 258.889 19.0488 258.584 18.9121C258.283 18.7715 258.029 18.5703 257.822 18.3086C257.615 18.0469 257.449 17.7305 257.324 17.3594C257.203 16.9883 257.119 16.5703 257.072 16.1055V15.5664C257.119 15.0977 257.203 14.6777 257.324 14.3066C257.449 13.9355 257.615 13.6191 257.822 13.3574C258.029 13.0918 258.283 12.8906 258.584 12.7539C258.885 12.6133 259.234 12.543 259.633 12.543C260.031 12.543 260.385 12.6211 260.693 12.7773C261.002 12.9297 261.26 13.1484 261.467 13.4336C261.678 13.7188 261.838 14.0605 261.947 14.459C262.057 14.8535 262.111 15.293 262.111 15.7773ZM261.021 15.9004V15.7773C261.021 15.4609 260.992 15.1641 260.934 14.8867C260.875 14.6055 260.781 14.3594 260.652 14.1484C260.523 13.9336 260.354 13.7656 260.143 13.6445C259.932 13.5195 259.672 13.457 259.363 13.457C259.09 13.457 258.852 13.5039 258.648 13.5977C258.449 13.6914 258.279 13.8184 258.139 13.9785C257.998 14.1348 257.883 14.3145 257.793 14.5176C257.707 14.7168 257.643 14.9238 257.6 15.1387V16.5508C257.662 16.8242 257.764 17.0879 257.904 17.3418C258.049 17.5918 258.24 17.7969 258.479 17.957C258.721 18.1172 259.02 18.1973 259.375 18.1973C259.668 18.1973 259.918 18.1387 260.125 18.0215C260.336 17.9004 260.506 17.7344 260.635 17.5234C260.768 17.3125 260.865 17.0684 260.928 16.791C260.99 16.5137 261.021 16.2168 261.021 15.9004ZM267.174 17.3184C267.174 17.1621 267.139 17.0176 267.068 16.8848C267.002 16.748 266.863 16.625 266.652 16.5156C266.445 16.4023 266.133 16.3047 265.715 16.2227C265.363 16.1484 265.045 16.0605 264.76 15.959C264.479 15.8574 264.238 15.7344 264.039 15.5898C263.844 15.4453 263.693 15.2754 263.588 15.0801C263.482 14.8848 263.43 14.6562 263.43 14.3945C263.43 14.1445 263.484 13.9082 263.594 13.6855C263.707 13.4629 263.865 13.2656 264.068 13.0938C264.275 12.9219 264.523 12.7871 264.812 12.6895C265.102 12.5918 265.424 12.543 265.779 12.543C266.287 12.543 266.721 12.6328 267.08 12.8125C267.439 12.9922 267.715 13.2324 267.906 13.5332C268.098 13.8301 268.193 14.1602 268.193 14.5234H267.109C267.109 14.3477 267.057 14.1777 266.951 14.0137C266.85 13.8457 266.699 13.707 266.5 13.5977C266.305 13.4883 266.064 13.4336 265.779 13.4336C265.479 13.4336 265.234 13.4805 265.047 13.5742C264.863 13.6641 264.729 13.7793 264.643 13.9199C264.561 14.0605 264.52 14.209 264.52 14.3652C264.52 14.4824 264.539 14.5879 264.578 14.6816C264.621 14.7715 264.695 14.8555 264.801 14.9336C264.906 15.0078 265.055 15.0781 265.246 15.1445C265.438 15.2109 265.682 15.2773 265.979 15.3438C266.498 15.4609 266.926 15.6016 267.262 15.7656C267.598 15.9297 267.848 16.1309 268.012 16.3691C268.176 16.6074 268.258 16.8965 268.258 17.2363C268.258 17.5137 268.199 17.7676 268.082 17.998C267.969 18.2285 267.803 18.4277 267.584 18.5957C267.369 18.7598 267.111 18.8887 266.811 18.9824C266.514 19.0723 266.18 19.1172 265.809 19.1172C265.25 19.1172 264.777 19.0176 264.391 18.8184C264.004 18.6191 263.711 18.3613 263.512 18.0449C263.312 17.7285 263.213 17.3945 263.213 17.043H264.303C264.318 17.3398 264.404 17.5762 264.561 17.752C264.717 17.9238 264.908 18.0469 265.135 18.1211C265.361 18.1914 265.586 18.2266 265.809 18.2266C266.105 18.2266 266.354 18.1875 266.553 18.1094C266.756 18.0312 266.91 17.9238 267.016 17.7871C267.121 17.6504 267.174 17.4941 267.174 17.3184Z" fill="white"/>
</svg>
